<?xml version="1.0" encoding="UTF-8" standalone="no"?>
<!-- Created with Inkscape (http://www.inkscape.org/) -->

<svg
   width="28.367712mm"
   height="44.426781mm"
   viewBox="0 0 28.367712 44.426781"
   version="1.1"
   id="svg1"
   inkscape:version="1.4 (86a8ad7, 2024-10-11)"
   sodipodi:docname="unfoolit.svg"
   xmlns:inkscape="http://www.inkscape.org/namespaces/inkscape"
   xmlns:sodipodi="http://sodipodi.sourceforge.net/DTD/sodipodi-0.dtd"
   xmlns="http://www.w3.org/2000/svg"
   xmlns:svg="http://www.w3.org/2000/svg">
  <sodipodi:namedview
     id="namedview1"
     pagecolor="#ffffff"
     bordercolor="#cccccc"
     borderopacity="1"
     inkscape:showpageshadow="0"
     inkscape:pageopacity="1"
     inkscape:pagecheckerboard="0"
     inkscape:deskcolor="#d1d1d1"
     inkscape:document-units="mm"
     showguides="true"
     inkscape:zoom="0.5"
     inkscape:cx="-3008"
     inkscape:cy="2246"
     inkscape:window-width="1920"
     inkscape:window-height="991"
     inkscape:window-x="-9"
     inkscape:window-y="-9"
     inkscape:window-maximized="1"
     inkscape:current-layer="layer1">
    <sodipodi:guide
       position="916.79977,408.96798"
       orientation="1,0"
       id="guide2"
       inkscape:locked="false" />
    <sodipodi:guide
       position="863.26062,644.99437"
       orientation="1,0"
       id="guide11"
       inkscape:locked="false" />
    <sodipodi:guide
       position="723.01085,916.97898"
       orientation="1,0"
       id="guide79"
       inkscape:locked="false" />
    <inkscape:page
       x="0"
       y="0"
       width="28.367712"
       height="44.426781"
       id="page2"
       margin="0"
       bleed="0" />
  </sodipodi:namedview>
  <defs
     id="defs1" />
  <g
     inkscape:label="Layer 1"
     inkscape:groupmode="layer"
     id="layer1"
     transform="translate(856.99502,-475.521)">
    <path
       id="path1-8-2-9-5"
       style="fill:white;fill-opacity:1;stroke-width:2.9;stroke-linecap:square"
       d="m -841.58111,496.25519 a 1.3618572,1.3618572 0 0 1 -1.36185,1.36186 1.3618572,1.3618572 0 0 1 -1.36186,-1.36186 1.3618572,1.3618572 0 0 1 1.36186,-1.36186 1.3618572,1.3618572 0 0 1 1.36185,1.36186 z" />
    <path
       style="fill:white;fill-opacity:1;stroke-width:1;stroke-linecap:square"
       d="m -842.94603,489.19827 c -4.73502,0.005 -9.13269,2.4874 -11.62926,6.55931 l -0.1581,0.25775 0.1581,0.25775 c 2.49657,4.07191 6.89424,6.55464 11.62926,6.55996 h 6.7e-4 6.9e-4 c 4.73868,-0.006 9.13849,-2.49158 11.63389,-6.5686 l 0.15811,-0.25842 -0.15811,-0.25708 c -2.49973,-4.07007 -6.89941,-6.54916 -11.63456,-6.55067 z m 6.7e-4,0.98649 h 6.9e-4 c 4.28629,0.002 8.26284,2.20063 10.61154,5.82326 -2.34494,3.6283 -6.32259,5.83318 -10.61154,5.83854 -4.28627,-0.005 -8.26219,-2.20693 -10.60822,-5.83123 2.34591,-3.62412 6.32154,-5.82552 10.60755,-5.83057 z"
       id="path1-2-8" />
    <path
       style="fill:white;fill-opacity:1;stroke-width:1;stroke-linecap:square"
       d="m -842.94271,475.52098 c -7.53161,0 -13.64807,6.11645 -13.64807,13.64807 0,7.53161 6.11646,13.64739 13.64807,13.64739 7.53161,0 13.64739,-6.11578 13.64739,-13.64739 0,-7.53161 -6.11578,-13.64807 -13.64739,-13.64807 z m 0,0.98649 c 6.99854,0 12.66091,5.66303 12.66091,12.66158 0,6.99853 -5.66237,12.6609 -12.66091,12.6609 -6.99855,0 -12.66158,-5.66237 -12.66158,-12.6609 0,-6.99855 5.66303,-12.66158 12.66158,-12.66158 z"
       id="path4-9-0" />
    <path
       style="fill:white;fill-opacity:1;stroke-width:1;stroke-linecap:square"
       d="m -842.94271,492.16637 c -2.25252,0 -4.08944,1.83626 -4.08944,4.08877 0,2.25251 1.83692,4.08944 4.08944,4.08944 2.2525,0 4.08876,-1.83693 4.08877,-4.08944 -1e-5,-2.25251 -1.83627,-4.08877 -4.08877,-4.08877 z m 0,0.98582 c 1.71944,0 3.10227,1.3835 3.10228,3.10295 -10e-6,1.71945 -1.38284,3.10295 -3.10228,3.10295 -1.71946,0 -3.10296,-1.3835 -3.10296,-3.10295 0,-1.71945 1.3835,-3.10295 3.10296,-3.10295 z"
       id="path4-9-0-3" />
    <path
       style="fill:white;fill-opacity:1;stroke-width:1;stroke-linecap:round;stroke-linejoin:bevel"
       d="m -842.94537,478.24129 a 0.49317695,0.49317695 0 0 0 -0.49357,0.49358 v 10.95631 a 0.49317695,0.49317695 0 0 0 0.49357,0.49358 0.49317695,0.49317695 0 0 0 0.49291,-0.49358 v -10.95631 a 0.49317695,0.49317695 0 0 0 -0.49291,-0.49358 z"
       id="path12" />
    <path
       style="fill:white;fill-opacity:1;stroke-width:1;stroke-linecap:round;stroke-linejoin:bevel"
       d="m -836.10573,482.00854 a 0.49317695,0.49317695 0 0 0 -0.27104,0.2624 l -4.76369,10.98687 a 0.49317695,0.49317695 0 0 0 0.25641,0.64902 0.49317695,0.49317695 0 0 0 0.64837,-0.25641 l 4.7637,-10.98754 a 0.49317695,0.49317695 0 0 0 -0.25643,-0.64836 0.49317695,0.49317695 0 0 0 -0.37732,-0.006 z"
       id="path13" />
    <path
       style="fill:white;fill-opacity:1;stroke-width:1;stroke-linecap:round;stroke-linejoin:bevel"
       d="m -850.33439,482.1042 a 0.49317695,0.49317695 0 0 0 -0.2345,0.65633 l 5.09917,10.77297 a 0.49317695,0.49317695 0 0 0 0.65633,0.23516 0.49317695,0.49317695 0 0 0 0.23517,-0.65699 l -5.09917,-10.77297 a 0.49317695,0.49317695 0 0 0 -0.657,-0.2345 z"
       id="path14" />
    <path
       style="fill:white;fill-opacity:1;stroke-width:1;stroke-linecap:round;stroke-linejoin:bevel"
       d="m -831.86683,488.81962 a 0.49317695,0.49317695 0 0 0 -0.34876,0.14481 l -3.09896,3.09897 a 0.49317695,0.49317695 0 0 0 0,0.69752 0.49317695,0.49317695 0 0 0 0.69752,0 l 3.09897,-3.09897 a 0.49317695,0.49317695 0 0 0 0,-0.69752 0.49317695,0.49317695 0 0 0 -0.34877,-0.14481 z"
       id="path15" />
    <path
       style="fill:white;fill-opacity:1;stroke-width:1;stroke-linecap:round;stroke-linejoin:bevel"
       d="m -853.95948,488.83224 a 0.49317695,0.49317695 0 0 0 -0.34876,0.14415 0.49317695,0.49317695 0 0 0 0,0.69752 l 3.06841,3.06907 a 0.49317695,0.49317695 0 0 0 0.69751,0 0.49317695,0.49317695 0 0 0 0,-0.69751 l -3.0684,-3.06908 a 0.49317695,0.49317695 0 0 0 -0.34876,-0.14415 z"
       id="path16" />
    <path
       style="fill:white;fill-opacity:1;stroke-width:1;stroke-linecap:round;stroke-linejoin:bevel"
       d="m -842.94271,499.35809 a 0.49317695,0.49317695 0 0 0 -0.49358,0.49291 v 2.48847 a 0.49317695,0.49317695 0 0 0 0.49358,0.49357 0.49317695,0.49317695 0 0 0 0.49291,-0.49357 V 499.851 a 0.49317695,0.49317695 0 0 0 -0.49291,-0.49291 z"
       id="path18" />
    <path
       d="m -830.05723,499.54599 c -0.70889,0.95794 -1.51181,1.82661 -2.39586,2.59197 l 2.84135,2.84214 a 0.85546724,0.85546724 0 0 1 0,1.20988 0.85546724,0.85546724 0 0 1 -1.20989,0 l -2.99688,-2.99767 c -1.15438,0.79936 -2.40732,1.44413 -3.73029,1.91398 l 3.71985,7.85889 a 0.85546724,0.85546724 0 0 1 -0.40709,1.13915 0.85546724,0.85546724 0 0 1 -1.13938,-0.40712 l -3.83539,-8.10323 c -0.89445,0.21088 -1.8105,0.34746 -2.74226,0.39908 v 11.6997 a 0.85546724,0.85546724 0 0 1 -0.85524,0.85522 0.85546724,0.85546724 0 0 1 -0.85521,-0.85522 v -11.69891 c -0.96404,-0.0527 -1.91178,-0.19576 -2.83569,-0.41875 l -3.55128,8.19124 a 0.85546724,0.85546724 0 0 1 -1.12489,0.44428 0.85546724,0.85546724 0 0 1 -0.44508,-1.12548 l 3.47091,-8.00517 c -1.30797,-0.47148 -2.54714,-1.11305 -3.68893,-1.90735 l -3.03103,3.03103 a 0.85546724,0.85546724 0 0 1 -0.60444,0.25057 0.85546724,0.85546724 0 0 1 -0.60524,-0.25057 0.85546724,0.85546724 0 0 1 0,-1.20988 l 2.87873,-2.87892 c -0.87249,-0.75863 -1.66616,-1.61741 -2.36733,-2.56423 -0.9137,1.87569 -1.42728,3.98334 -1.42728,6.21316 0,7.84356 6.34021,14.18396 14.18377,14.18397 7.84355,0 14.18395,-6.34041 14.18395,-14.18397 0,-2.23168 -0.51477,-4.34091 -1.42988,-6.21779 z"
       style="fill:white;fill-opacity:1;stroke-width:4.40003;stroke-linecap:square"
       id="path89-2-8-8-8-5" />
  </g>
</svg>
